# xmcd
#
# Track frame offsets:
#	151
#	18927
#	34953
#	53674
#
# Disc length: 938 seconds
#
# Revision: 1
# Processed by: cddbd v1.5.1PL0 Copyright (c) Steve Scherf et al.
# Submitted via: CDex 1.50Beta5
#
DISCID=2803a804
DTITLE=ゆうみるか - プレジャー
DYEAR=1900
DGENRE=Unclassifiable
TTITLE0=pleasure
TTITLE1=sweet season
TTITLE2=pleasure(music track)
TTITLE3=sweet season(music track)
EXTD=
EXTT0=
EXTT1=
EXTT2=
EXTT3=
PLAYORDER=
